<svg width="1804" height="554" viewBox="0 0 1804 554" fill="none" xmlns="http://www.w3.org/2000/svg">
<rect width="1804" height="554" fill="white"/>
<rect x="157.238" y="107" width="1502" height="122" stroke="black" stroke-width="2"/>
<rect x="158.238" y="108" width="750" height="120" fill="#278ED8"/>
<path d="M533.194 191.64C530.207 191.64 527.583 191.085 525.322 189.976C523.103 188.824 521.375 187.224 520.138 185.176C518.943 183.085 518.346 180.632 518.346 177.816V157.464C518.346 154.605 518.943 152.152 520.138 150.104C521.375 148.056 523.103 146.477 525.322 145.368C527.583 144.216 530.207 143.64 533.194 143.64C536.223 143.64 538.826 144.216 541.002 145.368C543.221 146.477 544.949 148.056 546.186 150.104C547.423 152.152 548.042 154.605 548.042 157.464H539.978C539.978 155.245 539.381 153.56 538.186 152.408C537.034 151.256 535.37 150.68 533.194 150.68C531.018 150.68 529.333 151.256 528.138 152.408C526.943 153.56 526.346 155.224 526.346 157.4V177.816C526.346 179.992 526.943 181.677 528.138 182.872C529.333 184.024 531.018 184.6 533.194 184.6C535.37 184.6 537.034 184.024 538.186 182.872C539.381 181.677 539.978 179.992 539.978 177.816H548.042C548.042 180.589 547.423 183.021 546.186 185.112C544.949 187.203 543.221 188.824 541.002 189.976C538.826 191.085 536.223 191.64 533.194 191.64Z" fill="white"/>
<rect x="908.238" y="108" width="450" height="120" fill="#7BD36D"/>
<path d="M1133.07 191.64C1129.87 191.64 1127.09 191.107 1124.75 190.04C1122.4 188.973 1120.59 187.459 1119.31 185.496C1118.07 183.491 1117.43 181.144 1117.39 178.456H1125.39C1125.39 180.376 1126.07 181.891 1127.43 183C1128.84 184.067 1130.74 184.6 1133.13 184.6C1135.43 184.6 1137.23 184.067 1138.51 183C1139.83 181.933 1140.49 180.461 1140.49 178.584C1140.49 177.005 1140.02 175.64 1139.08 174.488C1138.19 173.293 1136.88 172.483 1135.18 172.056L1129.8 170.584C1126.13 169.645 1123.3 167.96 1121.29 165.528C1119.33 163.096 1118.35 160.152 1118.35 156.696C1118.35 154.051 1118.94 151.747 1120.14 149.784C1121.33 147.821 1123.02 146.307 1125.19 145.24C1127.41 144.173 1130.02 143.64 1133 143.64C1137.52 143.64 1141.11 144.813 1143.75 147.16C1146.4 149.464 1147.74 152.579 1147.79 156.504H1139.79C1139.79 154.669 1139.19 153.24 1137.99 152.216C1136.8 151.149 1135.11 150.616 1132.94 150.616C1130.85 150.616 1129.23 151.107 1128.07 152.088C1126.92 153.069 1126.35 154.456 1126.35 156.248C1126.35 157.869 1126.77 159.256 1127.63 160.408C1128.52 161.517 1129.8 162.307 1131.47 162.776L1137.03 164.312C1140.75 165.251 1143.58 166.936 1145.55 169.368C1147.51 171.757 1148.49 174.723 1148.49 178.264C1148.49 180.909 1147.85 183.256 1146.57 185.304C1145.29 187.309 1143.5 188.867 1141.19 189.976C1138.89 191.085 1136.18 191.64 1133.07 191.64Z" fill="white"/>
<rect x="1358.24" y="108" width="300" height="120" fill="#FDBE45"/>
<path d="M1495.33 191V144.28H1503.33V183.576H1523.17V191H1495.33Z" fill="white"/>
<rect x="157.238" y="325.024" width="1502" height="122" stroke="black" stroke-width="2"/>
<rect x="158.238" y="326.024" width="750" height="120" fill="#DFE7EC"/>
<rect x="908.238" y="326.024" width="750" height="120" fill="#FF3E3E"/>
<path d="M1269.37 409V362.28H1297.4V369.256H1277.24V381.416H1295.16V388.328H1277.24V402.024H1297.4V409H1269.37Z" fill="white"/>
<path d="M93.544 193.5V140.94H111.04C114.544 140.94 117.592 141.612 120.184 142.956C122.824 144.3 124.864 146.196 126.304 148.644C127.744 151.044 128.464 153.876 128.464 157.14C128.464 160.356 127.72 163.188 126.232 165.636C124.792 168.084 122.776 169.98 120.184 171.324C117.592 172.668 114.544 173.34 111.04 173.34H102.544V193.5H93.544ZM102.544 165.204H111.04C113.536 165.204 115.528 164.484 117.016 163.044C118.552 161.556 119.32 159.588 119.32 157.14C119.32 154.644 118.552 152.676 117.016 151.236C115.528 149.796 113.536 149.076 111.04 149.076H102.544V165.204Z" fill="black"/>
<path d="M117.448 424.484L109.528 411.452L111.112 412.172C110.92 412.172 110.68 412.172 110.392 412.172C110.152 412.22 109.888 412.244 109.6 412.244C106.24 412.244 103.312 411.596 100.816 410.3C98.32 409.004 96.376 407.18 94.984 404.828C93.592 402.428 92.896 399.668 92.896 396.548V373.94C92.896 370.724 93.592 367.964 94.984 365.66C96.376 363.308 98.32 361.484 100.816 360.188C103.312 358.892 106.24 358.244 109.6 358.244C112.96 358.244 115.888 358.892 118.384 360.188C120.88 361.484 122.824 363.308 124.216 365.66C125.608 368.012 126.304 370.772 126.304 373.94V396.548C126.304 399.716 125.608 402.5 124.216 404.9C122.872 407.252 120.952 409.052 118.456 410.3L127.168 424.484H117.448ZM109.6 404.324C112.096 404.324 113.992 403.652 115.288 402.308C116.632 400.916 117.304 398.996 117.304 396.548V373.94C117.304 371.444 116.608 369.524 115.216 368.18C113.872 366.788 112 366.092 109.6 366.092C107.2 366.092 105.304 366.788 103.912 368.18C102.568 369.524 101.896 371.444 101.896 373.94V396.548C101.896 398.996 102.568 400.916 103.912 402.308C105.256 403.652 107.152 404.324 109.6 404.324Z" fill="black"/>
<line x1="881.1" y1="254.196" x2="929.671" y2="302.767" stroke="black" stroke-width="8"/>
<line y1="-4" x2="68.6903" y2="-4" transform="matrix(-0.707107 0.707107 0.707107 0.707107 932.524 257.024)" stroke="black" stroke-width="8"/>
</svg>
